<?xml version="1.0" standalone="no"?>
<!DOCTYPE svg PUBLIC "-//W3C//DTD SVG 20010904//EN"
 "http://www.w3.org/TR/2001/REC-SVG-20010904/DTD/svg10.dtd">
<svg version="1.0" xmlns="http://www.w3.org/2000/svg"
 width="261.000000pt" height="261.000000pt" viewBox="0 0 261.000000 261.000000"
 preserveAspectRatio="xMidYMid meet">
<metadata>
Created by potrace 1.11, written by Peter Selinger 2001-2013
</metadata>
<g transform="translate(0.000000,261.000000) scale(0.100000,-0.100000)"
fill="#000000" stroke="none">
<path d="M0 1305 l0 -1305 1305 0 1305 0 0 1305 0 1305 -1305 0 -1305 0 0
-1305z m1480 558 c0 -27 -57 -173 -67 -173 -7 0 -13 1 -13 3 0 3 44 136 55
165 5 13 25 17 25 5z m-388 -99 c40 -74 45 -94 26 -94 -15 0 -88 129 -88 155
0 33 25 8 62 -61z m708 -184 c0 -5 -36 -28 -80 -50 -99 -50 -109 -31 -12 22
69 38 92 45 92 28z m-396 -79 c18 -12 46 -40 62 -63 25 -35 29 -51 29 -107 0
-79 -23 -123 -87 -167 -35 -25 -51 -29 -107 -29 -51 0 -74 5 -102 22 -77 48
-113 143 -90 231 14 50 77 117 125 132 46 14 131 4 170 -19z m-552 -17 c43
-14 78 -30 78 -35 0 -14 -19 -11 -103 17 -42 14 -75 30 -71 35 7 13 9 12 96
-17z m908 -292 c41 -15 73 -31 70 -37 -3 -5 -7 -9 -10 -9 -95 25 -160 50 -160
60 0 19 13 17 100 -14z m-806 -39 c6 -6 -139 -92 -156 -93 -5 0 -8 6 -8 13 0
7 33 29 73 49 79 41 81 41 91 31z m569 -238 c40 -82 44 -95 24 -95 -12 0 -87
138 -87 160 0 6 6 10 13 10 7 0 29 -34 50 -75z m-344 13 c-6 -18 -18 -57 -26
-85 -10 -32 -21 -53 -30 -53 -9 0 -12 6 -9 18 3 9 15 47 26 85 13 41 26 67 35
67 11 0 12 -7 4 -32z"/>
<path d="M1215 1489 c-116 -60 -126 -235 -19 -308 77 -53 201 -31 253 45 53
77 31 201 -46 254 -49 33 -133 38 -188 9z"/>
</g>
</svg>
